<?xml version="1.0" standalone="no"?>
<!DOCTYPE svg PUBLIC "-//W3C//DTD SVG 20010904//EN"
 "http://www.w3.org/TR/2001/REC-SVG-20010904/DTD/svg10.dtd">
<svg version="1.0" xmlns="http://www.w3.org/2000/svg"
 width="248.000000pt" height="150.000000pt" viewBox="0 0 248.000000 150.000000"
 preserveAspectRatio="xMidYMid meet">

<g transform="translate(0.000000,150.000000) scale(0.100000,-0.100000)"
fill="#000000" stroke="none">
<path fill = "#ED1C24" d="M2034 1336 c-32 -23 -142 -64 -228 -86 -101 -26 -242 -35 -333 -22
l-73 10 -91 -61 c-84 -57 -89 -62 -63 -65 90 -11 393 33 531 76 35 11 60 16
58 11 -11 -16 -228 -80 -342 -99 -63 -11 -167 -23 -230 -27 l-116 -6 -96 -65
c-128 -87 -127 -85 -51 -77 295 30 624 131 832 256 76 46 228 156 228 165 0 7
-5 5 -26 -10z"/>
<path fill = "#2744A0" d="M552 893 c-1 -36 -85 -279 -125 -361 -51 -105 -153 -184 -312 -244
l-50 -18 135 4 c199 7 311 45 417 141 67 59 106 114 182 250 33 61 61 101 61
90 0 -34 37 -83 77 -103 21 -11 67 -29 103 -41 85 -28 98 -37 83 -52 -27 -27
-280 -1 -320 32 -10 9 -12 2 -7 -37 13 -120 6 -110 82 -118 112 -10 302 -6
385 9 139 24 198 79 176 160 -14 49 -69 87 -185 125 -51 17 -96 36 -99 40 -3
5 5 15 17 22 31 17 233 17 250 0 19 -19 24 -15 53 53 15 36 29 64 32 62 5 -6
-35 -421 -43 -442 -5 -13 9 -15 108 -15 l113 0 84 115 c46 63 85 115 88 115 9
0 -8 -194 -19 -213 -8 -17 -2 -17 108 -15 l117 3 169 228 c92 126 168 230 168
233 0 2 -33 4 -74 4 -53 0 -75 -4 -79 -14 -13 -32 -162 -226 -165 -213 -4 20
14 188 23 210 7 16 -2 17 -106 17 l-114 -1 -88 -120 c-49 -66 -90 -119 -92
-117 -6 6 15 194 25 216 l10 22 -228 0 c-328 0 -511 -24 -587 -76 -20 -13 -38
-24 -41 -24 -2 0 5 18 16 40 11 21 20 44 20 50 0 6 -63 10 -183 10 l-184 0 -1
-27z"/>
</g>
</svg>
