<?xml version="1.0" standalone="no"?>
<!DOCTYPE svg PUBLIC "-//W3C//DTD SVG 20010904//EN"
 "http://www.w3.org/TR/2001/REC-SVG-20010904/DTD/svg10.dtd">
<svg version="1.0" xmlns="http://www.w3.org/2000/svg"
 width="350.000000" height="350.000000" viewBox="0 0 606.000000 140.000000"
 preserveAspectRatio="xMidYMid meet">

<g transform="translate(0.000000,140.000000) scale(0.100000,-0.100000)"
fill="#000000" stroke="none">
<path d="M562 1201 c-178 -71 -292 -216 -323 -411 -24 -154 39 -329 156 -439
277 -258 710 -151 846 210 16 42 20 78 20 164 0 112 -2 120 -52 231 -47 105
-149 196 -272 245 -64 25 -84 28 -187 28 -103 0 -123 -3 -188 -28z m323 -48
c106 -32 194 -100 249 -192 54 -91 68 -147 64 -259 -3 -89 -6 -105 -40 -173
-62 -125 -148 -200 -277 -239 -66 -21 -121 -26 -121 -11 0 7 165 302 200 358
12 19 25 23 79 25 l65 3 28 49 c45 76 43 77 -144 74 l-162 -3 -32 -55 c-18
-30 -33 -58 -34 -62 0 -5 29 -8 65 -8 38 0 65 -4 65 -10 0 -11 -141 -262 -187
-334 -23 -35 -28 -38 -59 -33 -124 20 -287 165 -325 289 -64 208 8 415 185
530 64 41 100 50 88 21 -8 -21 -30 -59 -159 -276 -51 -87 -93 -164 -93 -172 0
-13 26 -15 165 -15 l165 0 36 55 c19 31 32 60 29 65 -4 6 -61 10 -131 10 -76
0 -124 4 -122 10 2 5 48 88 103 184 74 130 107 178 125 185 31 11 110 4 175
-16z"/>
<path d="M2524 886 c-45 -20 -74 -62 -74 -107 0 -41 22 -65 79 -89 42 -17 50
-48 20 -73 -18 -14 -36 -18 -79 -15 -54 3 -55 2 -58 -24 l-3 -28 65 0 c111 0
166 38 166 116 0 46 -9 56 -83 93 -40 20 -45 43 -16 72 18 18 28 20 69 15 43
-6 49 -4 55 15 4 11 4 23 1 26 -13 13 -112 13 -142 -1z"/>
<path d="M3570 881 c-19 -10 -41 -31 -49 -46 -12 -24 -11 -32 3 -63 14 -28 15
-37 4 -43 -7 -5 -16 -9 -19 -9 -4 0 -18 -12 -33 -26 -37 -38 -36 -94 1 -124
24 -19 36 -21 88 -16 82 8 104 8 148 0 41 -7 46 2 22 39 -13 20 -12 26 15 66
34 50 37 69 13 78 -16 6 -32 -9 -59 -53 -11 -18 -13 -18 -38 5 -34 32 -33 41
8 68 59 38 65 112 11 133 -39 15 -76 12 -115 -9z m88 -57 c4 -29 -43 -61 -64
-43 -32 26 -7 72 36 67 17 -2 26 -10 28 -24z m-52 -163 c29 -45 27 -56 -13
-64 -40 -7 -73 8 -73 35 0 21 35 68 52 68 4 0 19 -18 34 -39z"/>
<path d="M4289 873 c-68 -35 -110 -99 -117 -177 -9 -105 43 -152 160 -144 57
5 75 10 106 35 57 46 85 105 86 179 1 70 -15 97 -71 120 -50 21 -104 17 -164
-13z m124 -34 c25 -11 47 -47 47 -76 0 -38 -27 -99 -57 -130 -28 -27 -41 -33
-77 -33 -68 0 -98 50 -76 128 24 91 98 141 163 111z"/>
<path d="M5601 874 c-60 -30 -95 -78 -113 -154 -23 -102 26 -170 123 -170 80
0 110 11 160 59 50 49 69 94 69 167 0 106 -122 156 -239 98z m130 -37 c23 -18
39 -52 39 -84 -1 -42 -34 -107 -68 -131 -42 -30 -105 -30 -126 0 -23 32 -21
115 4 156 36 59 112 89 151 59z"/>
<path d="M1605 881 c-5 -9 -12 -39 -35 -156 -5 -27 -15 -70 -20 -95 -6 -25
-12 -52 -13 -60 -2 -13 20 -15 140 -16 l142 -2 26 39 25 39 70 0 c68 0 70 -1
76 -27 4 -16 11 -34 17 -40 11 -16 53 -17 62 -3 6 9 -15 136 -47 283 l-10 48
-40 -3 c-40 -3 -41 -5 -122 -130 -97 -153 -125 -188 -132 -170 -4 7 -27 12
-65 12 -71 0 -70 -6 -34 152 14 61 25 117 25 124 0 16 -55 20 -65 5z m391
-131 c11 -66 8 -70 -52 -70 -19 0 -34 5 -34 11 0 16 60 119 69 119 4 0 12 -27
17 -60z"/>
<path d="M2186 873 c-3 -10 -19 -81 -36 -157 -17 -77 -33 -143 -36 -147 -6
-11 33 -21 55 -14 13 4 22 22 30 63 13 70 25 84 55 71 15 -7 25 -27 36 -72 14
-59 16 -62 45 -62 24 0 31 5 33 24 4 26 -16 109 -30 127 -5 7 2 18 19 29 41
27 52 46 53 87 0 55 -25 68 -132 68 -74 0 -87 -3 -92 -17z m142 -45 c30 -30
-9 -78 -64 -78 l-36 0 7 37 c4 21 9 41 11 45 8 12 69 9 82 -4z"/>
<path d="M2732 848 c-33 -129 -62 -282 -54 -290 5 -5 51 -7 103 -6 89 3 94 4
97 26 3 21 0 22 -58 22 -68 0 -73 6 -62 60 7 33 10 35 52 38 72 4 90 10 90 32
0 18 -7 20 -54 20 -30 0 -58 5 -61 10 -4 6 -1 26 5 45 l12 35 63 0 c53 0 66 3
75 19 5 11 10 22 10 25 0 3 -47 6 -104 6 l-103 0 -11 -42z"/>
<path d="M3001 853 c-8 -30 -53 -231 -64 -286 -3 -16 41 -21 57 -7 8 6 16 25
19 43 27 176 46 207 72 120 34 -112 46 -148 57 -160 12 -14 74 -18 82 -5 4 7
76 318 76 329 0 2 -15 3 -32 1 -32 -3 -33 -5 -51 -78 -34 -140 -40 -161 -45
-155 -4 3 -22 56 -42 118 l-36 112 -41 3 c-41 3 -42 2 -52 -35z"/>
<path d="M3954 875 c-10 -24 5 -35 48 -35 l40 0 -4 -37 c-3 -21 -13 -74 -23
-118 -27 -118 -26 -130 9 -130 33 0 35 3 62 135 32 155 29 150 77 150 43 0 67
13 67 37 0 20 -268 19 -276 -2z"/>
<path d="M4590 833 c-7 -32 -16 -71 -20 -88 -40 -148 -14 -195 107 -195 73 0
120 24 146 73 16 31 67 228 67 258 0 5 -16 9 -35 9 -28 0 -36 -4 -39 -22 -3
-13 -8 -36 -11 -53 -3 -16 -10 -51 -15 -76 -19 -105 -51 -143 -113 -137 -54 5
-60 34 -32 163 13 61 24 113 25 118 0 4 -15 7 -33 7 -33 0 -34 -2 -47 -57z"/>
<path d="M4950 868 c-19 -43 -69 -303 -60 -312 5 -5 46 -7 92 -4 92 5 129 21
154 69 20 40 18 59 -13 91 -15 15 -21 28 -14 28 26 0 61 48 61 84 0 52 -27 66
-127 66 -77 0 -84 -2 -93 -22z m134 -34 c40 -15 1 -73 -50 -77 -25 -2 -29 2
-32 26 -6 47 32 70 82 51z m-16 -146 c30 -30 -1 -75 -60 -85 -44 -7 -52 5 -37
57 11 37 15 40 49 40 20 0 41 -5 48 -12z"/>
<path d="M5250 887 c0 -1 -16 -74 -35 -162 -21 -93 -32 -162 -26 -168 5 -5 19
-7 32 -5 20 2 26 13 40 68 15 61 18 65 45 65 24 0 30 -5 36 -32 4 -18 12 -48
16 -65 7 -29 12 -33 42 -33 31 0 35 3 33 25 -4 47 -14 95 -26 119 -10 20 -9
25 3 29 29 10 70 64 70 92 0 51 -38 70 -141 70 -49 0 -89 -1 -89 -3z m138 -59
c32 -32 -3 -78 -60 -78 -42 0 -42 0 -27 53 9 33 13 37 42 37 18 0 38 -5 45
-12z"/>
</g>
</svg>
