<?xml version="1.0" standalone="no"?>
<!DOCTYPE svg PUBLIC "-//W3C//DTD SVG 20010904//EN"
 "http://www.w3.org/TR/2001/REC-SVG-20010904/DTD/svg10.dtd">
<svg version="1.0" xmlns="http://www.w3.org/2000/svg"
 width="267.000000pt" height="150.000000pt" viewBox="0 0 267.000000 150.000000"
 preserveAspectRatio="xMidYMid meet" >

<g transform="translate(0.000000,150.000000) scale(0.100000,-0.100000)"
fill="crimson" stroke="none">
<path d="M833 943 c-18 -9 -33 -20 -33 -25 0 -4 14 -40 32 -79 l32 -72 -29
-55 c-30 -57 -77 -96 -108 -88 -12 3 -26 -8 -44 -35 -14 -22 -23 -42 -20 -45
3 -3 23 -8 44 -11 36 -5 42 -2 73 33 18 21 47 67 63 103 l30 64 44 -87 43 -86
45 0 c52 0 54 5 24 69 -16 38 -18 50 -8 73 6 15 14 28 18 28 4 0 22 -36 41
-80 l35 -80 48 0 c26 0 47 2 47 5 0 6 -161 366 -167 374 -2 3 -21 -4 -43 -15
l-39 -19 31 -69 c23 -54 28 -76 22 -95 -5 -13 -13 -24 -19 -23 -5 1 -33 52
-61 114 -29 62 -56 113 -60 114 -5 2 -24 -5 -41 -13z"/>
<path d="M2163 948 c-16 -8 -23 -20 -23 -40 0 -21 -5 -28 -20 -28 -11 0 -20
-4 -20 -10 0 -5 9 -10 20 -10 19 0 20 -7 20 -109 0 -60 3 -116 6 -125 4 -10
18 -16 38 -16 l31 0 -3 117 c-4 112 -3 117 20 135 l23 18 -22 0 c-20 0 -23 5
-23 40 0 42 -8 47 -47 28z"/>
<path d="M2328 948 c-22 -7 -28 -16 -28 -38 0 -20 -6 -30 -22 -35 l-23 -8 23
-4 c21 -4 22 -8 22 -109 0 -123 8 -144 53 -144 l32 0 -3 125 c-3 108 -1 125
12 125 9 0 16 5 16 10 0 6 -7 10 -15 10 -11 0 -15 11 -15 40 0 43 -5 46 -52
28z"/>
<path d="M340 921 c0 -19 143 -321 151 -321 17 0 8 26 -59 174 -60 131 -92
182 -92 147z"/>
<path d="M432 922 c23 -60 115 -251 119 -252 10 0 19 41 19 89 0 49 -31 113
-67 136 -31 21 -76 37 -71 27z"/>
<path d="M235 846 c-20 -35 -25 -55 -23 -93 3 -45 5 -48 32 -51 47 -6 73 6 86
39 12 27 10 36 -15 90 -16 32 -34 59 -41 59 -7 0 -25 -20 -39 -44z"/>
<path d="M1260 873 c-19 -7 -40 -33 -40 -50 0 -11 6 -10 31 2 33 17 70 17 76
-1 2 -6 -19 -21 -46 -33 -79 -34 -107 -84 -80 -144 18 -41 50 -52 89 -32 23
12 35 14 43 6 6 -6 25 -11 42 -11 l30 0 -5 121 c-4 105 -8 123 -24 135 -19 14
-86 18 -116 7z m64 -119 c11 -29 6 -72 -10 -88 -49 -49 -83 32 -36 87 19 21
38 22 46 1z"/>
<path d="M1438 758 c2 -68 5 -129 7 -135 3 -7 19 -13 37 -13 l33 0 -3 105 -3
105 30 0 c36 0 63 36 40 51 -19 12 -43 11 -56 -2 -8 -8 -13 -8 -17 0 -4 6 -22
11 -39 11 l-32 0 3 -122z"/>
<path d="M1615 753 c4 -71 9 -131 12 -135 2 -5 19 -8 36 -8 l32 0 -3 105 -3
105 30 0 c36 0 63 36 40 51 -19 12 -43 11 -56 -2 -8 -8 -13 -8 -17 0 -4 6 -23
11 -43 11 l-35 0 7 -127z"/>
<path d="M1798 748 c4 -140 7 -149 52 -146 l25 2 -3 115 c-3 156 -5 161 -45
161 l-32 0 3 -132z"/>
<path d="M1965 868 c-56 -31 -65 -48 -65 -123 0 -81 16 -113 70 -135 57 -24
127 27 137 98 8 62 -4 107 -39 141 -33 33 -68 39 -103 19z m65 -47 c18 -35 12
-136 -9 -162 -16 -20 -22 -22 -32 -11 -18 17 -24 143 -10 171 15 26 37 27 51
2z"/>
<path d="M341 699 c-13 -17 -39 -37 -58 -45 -35 -15 -35 -15 -17 -36 11 -11
33 -27 51 -34 35 -15 99 -19 106 -6 3 4 -10 40 -27 79 l-32 73 -23 -31z"/>
</g>
</svg>
