<svg aria-hidden="true" style="position: absolute; width: 0; height: 0; overflow: hidden;" version="1.1" xmlns="http://www.w3.org/2000/svg" xmlns:xlink="http://www.w3.org/1999/xlink">
<defs>
<symbol id="icon-controller-record" viewBox="0 0 20 20">
<path d="M10 3c-3.866 0-7 3.133-7 7 0 3.865 3.134 7 7 7s7-3.135 7-7c0-3.867-3.134-7-7-7z"></path>
</symbol>
<symbol id="icon-phone" viewBox="0 0 32 32">
<path d="M22 20c-2 2-2 4-4 4s-4-2-6-4-4-4-4-6 2-2 4-4-4-8-6-8-6 6-6 6c0 4 4.109 12.109 8 16s12 8 16 8c0 0 6-4 6-6s-6-8-8-6z"></path>
</symbol>
<symbol id="icon-location2" viewBox="0 0 32 32">
<path d="M16 0c-5.523 0-10 4.477-10 10 0 10 10 22 10 22s10-12 10-22c0-5.523-4.477-10-10-10zM16 16.125c-3.383 0-6.125-2.742-6.125-6.125s2.742-6.125 6.125-6.125 6.125 2.742 6.125 6.125-2.742 6.125-6.125 6.125zM12.125 10c0-2.14 1.735-3.875 3.875-3.875s3.875 1.735 3.875 3.875c0 2.14-1.735 3.875-3.875 3.875s-3.875-1.735-3.875-3.875z"></path>
</symbol>
<symbol id="icon-user-tie" viewBox="0 0 32 32">
<path d="M10 6c0-3.314 2.686-6 6-6s6 2.686 6 6c0 3.314-2.686 6-6 6s-6-2.686-6-6zM24.002 14h-1.107l-6.222 12.633 2.327-11.633-3-3-3 3 2.327 11.633-6.222-12.633h-1.107c-3.998 0-3.998 2.687-3.998 6v10h24v-10c0-3.313 0-6-3.998-6z"></path>
</symbol>
<symbol id="icon-spinner9" viewBox="0 0 32 32">
<path d="M16 0c-8.711 0-15.796 6.961-15.995 15.624 0.185-7.558 5.932-13.624 12.995-13.624 7.18 0 13 6.268 13 14 0 1.657 1.343 3 3 3s3-1.343 3-3c0-8.837-7.163-16-16-16zM16 32c8.711 0 15.796-6.961 15.995-15.624-0.185 7.558-5.932 13.624-12.995 13.624-7.18 0-13-6.268-13-14 0-1.657-1.343-3-3-3s-3 1.343-3 3c0 8.837 7.163 16 16 16z"></path>
</symbol>
</defs>
</svg>
