<?xml version="1.0" standalone="no"?>
<!DOCTYPE svg PUBLIC "-//W3C//DTD SVG 20010904//EN"
 "http://www.w3.org/TR/2001/REC-SVG-20010904/DTD/svg10.dtd">
<svg version="1.0" xmlns="http://www.w3.org/2000/svg"
 width="167.000000pt" height="150.000000pt" viewBox="0 0 167.000000 150.000000"
 preserveAspectRatio="xMidYMid meet">
<metadata>
Created by potrace 1.16, written by Peter Selinger 2001-2019
</metadata>
<g transform="translate(0.000000,150.000000) scale(0.100000,-0.100000)"
fill="#8E744B" stroke="none">
<path d="M1368 1484 c-16 -8 -28 -17 -28 -20 0 -2 9 0 19 6 11 5 23 10 28 10
4 -1 -4 -8 -20 -16 -15 -8 -33 -12 -39 -8 -7 4 -8 3 -4 -4 8 -13 -89 -66 -105
-57 -5 4 -8 1 -7 -7 2 -7 -4 -12 -12 -10 -11 3 -9 -2 5 -16 11 -11 22 -18 24
-16 2 2 21 -6 42 -16 45 -23 53 -25 43 -7 -4 7 -3 9 2 4 5 -5 10 -13 10 -18 1
-5 2 -13 3 -18 1 -12 40 -8 69 8 12 6 22 9 22 7 0 -3 -13 -12 -29 -21 -23 -12
-31 -23 -34 -52 -4 -38 -4 -38 -5 6 -1 24 -5 42 -8 38 -9 -8 -84 31 -84 44 0
6 -4 7 -10 4 -5 -3 -10 -2 -10 3 0 5 -6 9 -12 9 -7 0 -20 3 -28 7 -13 5 -15
-11 -15 -114 0 -66 4 -120 8 -120 5 0 5 -6 1 -12 -4 -7 -4 -10 0 -6 10 8 47
-23 40 -34 -3 -4 1 -6 8 -3 7 3 49 -15 93 -40 75 -41 100 -64 35 -30 -17 9
-30 13 -30 11 0 -10 61 -37 70 -31 6 3 10 46 10 96 0 53 4 89 10 89 6 0 10
-37 10 -90 l0 -91 110 58 c60 32 110 60 110 64 0 3 -20 15 -45 27 -25 12 -45
27 -45 34 0 6 -3 9 -6 5 -4 -3 -19 0 -35 9 -26 13 -32 13 -60 -2 -17 -8 -29
-11 -25 -6 3 5 18 15 34 21 23 10 28 17 26 44 -1 30 -1 30 3 3 4 -23 7 -26 14
-15 8 12 10 12 8 -1 -3 -26 1 -44 7 -37 8 8 104 -40 104 -52 0 -4 7 -8 15 -8
12 0 15 19 15 111 0 61 -3 120 -6 132 -3 12 -27 31 -60 47 -35 17 -52 32 -48
39 4 7 3 8 -4 4 -11 -6 -92 28 -92 39 0 3 18 -4 40 -15 22 -11 40 -18 40 -15
0 9 -75 42 -87 38 -9 -3 -13 -32 -13 -94 0 -53 -4 -89 -10 -89 -6 0 -10 37
-10 90 0 79 -2 89 -17 83 -11 -4 -14 -3 -9 5 9 15 7 15 -26 -4z m217 -134 c3
-5 0 -7 -8 -4 -8 3 -14 -2 -14 -11 0 -19 0 -19 47 5 24 12 41 16 45 10 6 -9
-8 -14 -27 -11 -5 0 -8 -3 -8 -9 0 -12 -75 -51 -84 -43 -3 4 -6 1 -6 -5 0 -7
-3 -11 -7 -11 -26 4 -33 -4 -33 -38 0 -33 -5 -41 -38 -59 -34 -20 -40 -21 -65
-8 -19 11 -32 12 -46 5 -10 -6 -21 -7 -25 -4 -3 3 -6 2 -7 -3 0 -5 -2 -17 -4
-26 -4 -21 -1 -22 26 -7 20 10 20 10 3 -18 -10 -15 -18 -29 -19 -30 0 -1 -11
7 -25 18 -14 11 -18 17 -9 14 10 -4 16 0 16 10 0 19 0 19 -47 -5 -24 -12 -41
-16 -45 -10 -6 9 8 14 28 11 4 0 7 3 7 9 0 8 91 61 105 60 3 0 10 0 15 0 6 0
10 17 10 38 0 32 5 40 38 58 34 20 40 21 65 8 19 -11 32 -12 46 -5 10 6 21 7
25 4 3 -3 6 -2 7 3 0 5 2 17 4 27 4 20 1 21 -25 7 -19 -10 -19 -9 -2 19 13 23
20 27 34 20 9 -5 20 -14 23 -19z"/>
<path d="M887 952 c-18 -19 -80 -163 -73 -169 2 -2 18 32 36 77 18 44 37 83
42 86 7 4 7 0 0 -12 -5 -11 -65 -152 -132 -314 -67 -162 -129 -302 -137 -312
-8 -9 -30 -19 -49 -22 -72 -14 -31 -26 86 -26 73 0 120 4 120 10 0 6 -9 10
-19 10 -20 0 -22 26 -8 80 4 15 1 12 -9 -9 -8 -18 -13 -40 -10 -47 3 -8 1 -14
-4 -14 -17 0 -11 26 22 115 l33 86 104 -3 105 -3 37 -95 c31 -80 35 -97 23
-106 -8 -6 -14 -14 -14 -18 0 -3 59 -6 130 -6 126 0 167 11 94 24 -40 8 -78
41 -70 62 3 7 1 13 -5 11 -6 -1 -65 126 -131 283 -131 312 -146 350 -94 245
19 -38 35 -65 35 -60 1 22 -65 140 -80 143 -8 1 -23 -6 -32 -16z m42 -298 c17
-48 29 -89 27 -91 -2 -2 -12 19 -21 47 -9 28 -19 49 -21 47 -2 -2 3 -23 11
-47 8 -23 15 -44 15 -46 0 -2 -28 -5 -62 -6 l-63 -2 80 -6 80 -6 -84 -2 c-63
-2 -82 1 -78 11 51 138 72 187 77 187 4 0 22 -39 39 -86z"/>
<path d="M22 876 c-6 -32 -9 -63 -6 -68 4 -5 19 5 34 24 28 33 28 33 129 36
l101 4 -1 -219 c-1 -120 -4 -249 -8 -288 -6 -68 -7 -70 -39 -79 -65 -18 -29
-26 123 -26 152 0 202 12 110 26 -25 3 -46 7 -47 8 -1 0 -5 131 -8 290 l-5
288 91 -4 c98 -4 125 -15 123 -52 -1 -19 -2 -18 -8 4 -8 30 -34 38 -124 39
l-67 1 2 -277 c3 -257 4 -278 21 -279 12 -1 13 -1 2 3 -13 4 -15 42 -15 274
l0 269 54 0 c79 0 116 -9 116 -30 0 -9 10 -25 22 -36 12 -10 18 -13 14 -6 -4
6 -2 12 3 12 7 0 11 28 11 73 l0 72 -309 0 -308 0 -11 -59z"/>
<path d="M1290 915 c0 -10 10 -15 33 -15 18 0 38 -5 45 -12 16 -16 17 -614 1
-687 -11 -51 -60 -131 -80 -131 -6 0 5 18 25 40 20 22 36 48 36 58 -1 10 -6 5
-14 -14 -8 -17 -34 -48 -60 -69 -25 -20 -46 -42 -46 -48 0 -6 7 -2 15 9 13 16
14 16 9 2 -16 -46 87 4 159 76 85 84 97 145 90 456 -3 129 -1 253 4 275 8 36
12 40 41 43 20 2 32 9 32 18 0 11 -26 14 -145 14 -122 0 -145 -2 -145 -15z"/>
</g>
</svg>
